name D:\school\WTK\thesis\model\3dpredictsim\Results\debug_batch\Pog_s1_tmt_aCst_d05_k2000_ig24_act_TTC.mot
datacolumns 128
datarows 4
range 1.81970145 1.85609548
endheader
time	pelvis_tilt	pelvis_list	pelvis_rotation	pelvis_tx	pelvis_ty	pelvis_tz	hip_flexion_l	hip_adduction_l	hip_rotation_l	hip_flexion_r	hip_adduction_r	hip_rotation_r	knee_angle_l	knee_angle_r	ankle_angle_l	ankle_angle_r	subtalar_angle_l	subtalar_angle_r	tmt_angle_l	tmt_angle_r	mtp_angle_l	mtp_angle_r	lumbar_extension	lumbar_bending	lumbar_rotation	arm_flex_l	arm_add_l	arm_rot_l	arm_flex_r	arm_add_r	arm_rot_r	elbow_flex_l	elbow_flex_r	pro_sup_l	pro_sup_r	glut_med1_l/activation	glut_med2_l/activation	glut_med3_l/activation	glut_min1_l/activation	glut_min2_l/activation	glut_min3_l/activation	semimem_l/activation	semiten_l/activation	bifemlh_l/activation	bifemsh_l/activation	sar_l/activation	add_long_l/activation	add_brev_l/activation	add_mag1_l/activation	add_mag2_l/activation	add_mag3_l/activation	tfl_l/activation	pect_l/activation	grac_l/activation	glut_max1_l/activation	glut_max2_l/activation	glut_max3_l/activation	iliacus_l/activation	psoas_l/activation	quad_fem_l/activation	gem_l/activation	peri_l/activation	rect_fem_l/activation	vas_med_l/activation	vas_int_l/activation	vas_lat_l/activation	med_gas_l/activation	lat_gas_l/activation	soleus_l/activation	tib_post_l/activation	flex_dig_l/activation	flex_hal_l/activation	tib_ant_l/activation	per_brev_l/activation	per_long_l/activation	per_tert_l/activation	ext_dig_l/activation	ext_hal_l/activation	ercspn_l/activation	intobl_l/activation	extobl_l/activation	glut_med1_r/activation	glut_med2_r/activation	glut_med3_r/activation	glut_min1_r/activation	glut_min2_r/activation	glut_min3_r/activation	semimem_r/activation	semiten_r/activation	bifemlh_r/activation	bifemsh_r/activation	sar_r/activation	add_long_r/activation	add_brev_r/activation	add_mag1_r/activation	add_mag2_r/activation	add_mag3_r/activation	tfl_r/activation	pect_r/activation	grac_r/activation	glut_max1_r/activation	glut_max2_r/activation	glut_max3_r/activation	iliacus_r/activation	psoas_r/activation	quad_fem_r/activation	gem_r/activation	peri_r/activation	rect_fem_r/activation	vas_med_r/activation	vas_int_r/activation	vas_lat_r/activation	med_gas_r/activation	lat_gas_r/activation	soleus_r/activation	tib_post_r/activation	flex_dig_r/activation	flex_hal_r/activation	tib_ant_r/activation	per_brev_r/activation	per_long_r/activation	per_tert_r/activation	ext_dig_r/activation	ext_hal_r/activation	ercspn_r/activation	intobl_r/activation	extobl_r/activation	
          1.81970145	         -2.92969311	          1.25575347	         -8.00584338	          2.27462682	          0.85737223	          0.00266980	         32.70665407	          0.71282904	         -1.00806676	        -16.02960476	         -2.25838734	          8.15051043	        -15.96035771	        -15.85782328	          8.11769687	         -8.12984180	          1.73491503	         15.73301616	          0.01204424	          0.66367294	         -0.08820565	         29.29033662	         -0.47653035	          0.98047767	          2.74269427	        -11.19185272	        -13.58681414	         10.74159002	          3.66102310	        -13.51527136	         17.68254688	         16.45965626	         43.80074756	         86.51662706	         86.51662706	          0.05000015	          0.05000009	          0.05000015	          0.05000019	          0.05000019	          0.05000047	          0.08993609	          0.06010948	          0.15897617	          0.05000080	          0.05667997	          0.07441589	          0.11263292	          0.15963185	          0.15336087	          0.11896037	          0.05000036	          0.06010918	          0.06010965	          0.05000016	          0.05000049	          0.10161735	          0.06010938	          0.06010945	          0.16781969	          0.05000140	          0.05471975	          0.05000016	          0.11559436	          0.12179806	          0.10281784	          0.06010944	          0.06010944	          0.06010944	          0.05000006	          0.05000080	          0.06010903	          0.53235496	          0.32442584	          0.18815117	          0.14488470	          0.57589770	          0.34184668	          0.05000014	          0.12791451	          0.10482334	          0.16275844	          0.08687380	          0.07578225	          0.21622264	          0.13383335	          0.08687438	          0.05000109	          0.05000010	          0.05000010	          0.05000036	          0.09600353	          0.05000064	          0.05000011	          0.05000015	          0.05000024	          0.05000016	          0.18581044	          0.05000097	          0.05000046	          0.05000233	          0.05000103	          0.05000036	          0.36277518	          0.55882921	          0.05000025	          0.05000076	          0.05854343	          0.18292170	          0.08703756	          0.07836117	          0.09170438	          0.15376046	          0.22901978	          0.06010940	          0.15855015	          0.19078948	          0.20325432	          0.05000006	          0.37054723	          0.34079572	          0.05000006	          0.25496353	          0.05000012	          0.05000000	          0.05000001	          0.05000004	
          1.83183280	         -2.92376913	          1.18700507	         -8.16394417	          2.29414354	          0.85608538	          0.00232090	         31.99486325	          0.98015740	         -0.81402170	        -16.16500666	         -2.42984079	          7.90399254	        -15.90515995	        -17.24205116	          7.50906121	        -10.90907851	          1.36060904	         16.11748425	          0.02054119	          0.50536635	         -0.08872596	         30.73608739	         -0.22231930	          0.83349227	          2.83615472	        -12.60072312	        -13.57220307	         10.58834917	          3.18235378	        -13.57751058	         17.90432357	         16.51803792	         45.00086397	         86.51662706	         86.51662706	          0.06096877	          0.06938587	          0.07400414	          0.05000068	          0.05000111	          0.05000053	          0.07481028	          0.05000009	          0.13223893	          0.05000004	          0.05000019	          0.06190038	          0.09368991	          0.29680282	          0.21173337	          0.12632212	          0.05000045	          0.05000058	          0.05000029	          0.06010947	          0.10529377	          0.12023296	          0.05000006	          0.05000019	          0.36679074	          0.06191383	          0.07132786	          0.07226291	          0.24455081	          0.24181403	          0.21120231	          0.05000000	          0.05000000	          0.05000000	          0.05000001	          0.05000173	          0.05000011	          0.69365334	          0.31719489	          0.21182052	          0.52723567	          0.64256059	          0.42259950	          0.05000000	          0.10640133	          0.08719372	          0.13538510	          0.07226304	          0.06303698	          0.17985748	          0.11132474	          0.07226355	          0.05000094	          0.05000007	          0.05000011	          0.05000007	          0.07985736	          0.15056010	          0.14415713	          0.17681585	          0.05106637	          0.05000211	          0.15456011	          0.06163794	          0.05000075	          0.05000229	          0.05000190	          0.05000243	          0.30176219	          0.46484312	          0.07226290	          0.07226146	          0.06010971	          0.15215718	          0.10370845	          0.12555237	          0.08406815	          0.12790040	          0.19050231	          0.05000000	          0.13188454	          0.15870175	          0.16907019	          0.26073239	          0.39616404	          0.32274513	          0.47477720	          0.41921451	          0.24772279	          0.05873052	          0.07226289	          0.05888373	
          1.84396414	         -2.91168544	          1.12553947	         -8.28546013	          2.31383514	          0.85449997	          0.00199240	         31.14961817	          1.22423755	         -0.55026416	        -16.10380241	         -2.56731099	          7.64853704	        -16.47446812	        -19.00027527	          6.87564046	        -13.45965013	          0.96150740	         16.45913719	         -0.01690228	          0.36012642	         -0.16191564	         31.24457732	          0.03771627	          0.66535750	          2.91331517	        -13.98001464	        -13.56872225	         10.50877280	          2.64122711	        -13.64714978	         18.05508324	         16.53883102	         46.17902599	         86.51662706	         86.51662706	          0.24987327	          0.27070800	          0.37328885	          0.05000038	          0.05000017	          0.23251485	          0.08984273	          0.05000047	          0.11996435	          0.05000008	          0.05000029	          0.07226302	          0.15154583	          0.24688557	          0.22475081	          0.16296243	          0.05000009	          0.07226275	          0.11983805	          0.05000007	          0.17268665	          0.16844374	          0.05000046	          0.05000009	          0.30510242	          0.05150103	          0.27560168	          0.06010944	          0.20342130	          0.20114481	          0.17568148	          0.06010944	          0.06010944	          0.06010944	          0.05000036	          0.06010942	          0.06010945	          0.62363467	          0.37392178	          0.18584272	          0.43856311	          0.64951496	          0.35152518	          0.05284038	          0.08850636	          0.07252913	          0.11261578	          0.06010958	          0.05243519	          0.14960839	          0.09260173	          0.06011001	          0.07400448	          0.06010949	          0.06010959	          0.05000023	          0.06642675	          0.15124684	          0.28681911	          0.14707908	          0.06720675	          0.08929362	          0.12856558	          0.07226266	          0.06010971	          0.05000461	          0.05000464	          0.06010943	          0.25101062	          0.39154997	          0.06010953	          0.06010839	          0.05000023	          0.12656677	          0.08626636	          0.10443647	          0.06992924	          0.10638959	          0.15846286	          0.05000000	          0.10970366	          0.13201066	          0.14063529	          0.42498109	          0.45759348	          0.33066262	          0.70962210	          0.53905561	          0.36687894	          0.07869107	          0.06010943	          0.05000008	
          1.85609548	         -2.89651869	          1.07173864	         -8.36623549	          2.33336560	          0.85268659	          0.00166258	         30.22530856	          1.45783971	         -0.25773658	        -15.81276881	         -2.67296647	          7.39722918	        -17.16716093	        -21.18042864	          6.52343166	        -15.41294832	          0.53152127	         16.74525832	         -0.00933191	          0.26249847	         -0.16775180	         30.01165965	          0.27498737	          0.47825037	          2.97290133	        -15.25430782	        -13.57789948	         10.55310131	          2.09401134	        -13.71759202	         18.14444723	         16.47409073	         47.30417312	         86.51662706	         86.51662706	          0.32837549	          0.42396937	          0.53483204	          0.21716825	          0.23484762	          0.37747500	          0.07473263	          0.09435153	          0.09978827	          0.07226216	          0.05000043	          0.06010956	          0.12605825	          0.20536348	          0.21403398	          0.17627368	          0.05000008	          0.06010948	          0.09968344	          0.28687731	          0.23481779	          0.19818910	          0.05000006	          0.05000005	          0.25378911	          0.05000052	          0.30175802	          0.05000001	          0.18805077	          0.26988463	          0.21584608	          0.05000000	          0.05000001	          0.05000000	          0.05000000	          0.05000005	          0.05000004	          0.77139622	          0.31103417	          0.15458702	          0.68960051	          0.71355747	          0.53282477	          0.07374909	          0.07362101	          0.06033089	          0.20636247	          0.05000016	          0.05000003	          0.17384084	          0.07702765	          0.05000058	          0.11057868	          0.05000011	          0.05000020	          0.05000006	          0.05525571	          0.12580971	          0.23858080	          0.12234282	          0.05590385	          0.07427597	          0.10694293	          0.06010986	          0.05000038	          0.05000063	          0.05000039	          0.05000030	          0.20879465	          0.38005317	          0.05000010	          0.05000025	          0.05000007	          0.10528026	          0.08687333	          0.08687335	          0.06799818	          0.08849656	          0.13181194	          0.05000003	          0.09125326	          0.10980860	          0.11698269	          0.36838532	          0.38063369	          0.28201022	          0.62103853	          0.69939167	          0.30517583	          0.12007974	          0.05000000	          0.05000001	
